<svg width="842" height="269" viewBox="0 0 842 269" fill="none" xmlns="http://www.w3.org/2000/svg">
<path opacity="0.1" d="M547.799 13.9356C546.639 13.9356 545.766 13.354 544.316 12.7739C531.824 4.64352 519.625 1.4509 505.973 1.4509C448.46 1.4509 410.408 60.682 410.408 123.106C410.408 127.449 410.515 131.663 410.712 135.771C401.624 119.93 386.838 107.881 367.154 103.211C382.551 94.5024 393.297 77.0816 393.297 57.3373C393.297 28.5934 370.93 5.07486 343.627 5.07486H241.38L259.97 7.97836V226.899L241.38 230.093H311.966L293.374 226.899V109.6H330.266C366.863 109.6 383.42 141.247 383.713 176.089C383.713 219.059 358.731 260.579 311.384 260.87C186.192 260.87 150.173 120.634 58.6748 120.634C41.5374 120.634 22.0772 125.568 0 137.473C13.6524 131.086 25.8515 128.181 37.4704 128.181C119.383 128.181 160.339 269 308.189 269H313.998C380.845 267.428 414.323 228.728 420.22 188.755C429.879 227.676 465.549 267.531 528.002 269H533.811C681.66 269 722.615 128.181 804.529 128.181C816.148 128.181 828.348 131.086 842 137.473C819.923 125.568 800.463 120.634 783.325 120.634C723.298 120.634 683.706 180.969 642.298 215.787C629.962 226.16 616.809 235.652 602.502 243.135C574.754 257.646 536.372 253.894 508.666 240.664C484.279 229.019 466.17 208.156 456.635 183.011C449.865 165.149 447.298 145.906 447.298 126.88C447.878 66.4857 474.312 9.57962 514.396 9.57962C527.177 9.57962 538.798 15.6774 546.928 25.5496C551.286 31.0657 555.06 48.4865 555.06 48.4865V0C553.029 7.83789 551.866 13.9356 547.799 13.9356ZM293.374 13.2052H326.488C350.308 13.2052 362.216 35.2696 362.216 57.3373C362.216 79.405 350.308 101.18 326.488 101.18H293.374V13.2052Z" fill="url(#paint0_linear_3_1055)"/>
<defs>
<linearGradient id="paint0_linear_3_1055" x1="-0.000181855" y1="134.499" x2="842" y2="134.499" gradientUnits="userSpaceOnUse">
<stop stop-color="#FCEDA0"/>
<stop offset="0.303168" stop-color="#B8851D"/>
<stop offset="0.5" stop-color="#B8851D"/>
<stop offset="0.652428" stop-color="#B8851D"/>
<stop offset="1" stop-color="#BF9A37"/>
</linearGradient>
</defs>
</svg>
