<svg width="155" height="40" viewBox="0 0 155 40" fill="none" xmlns="http://www.w3.org/2000/svg">
<path d="M13.4815 37.8532L13.5654 38.0543C12.2228 39.6991 8.26238 40.2696 7.02039 36.9803C6.33236 35.118 7.02039 33.1711 8.61476 32.1472C8.74881 32.0633 8.88328 31.9962 9.01754 31.946C9.82288 31.493 11.6017 31.107 13.0116 32.332C13.2297 32.5163 13.7329 32.651 13.7329 32.651C13.7329 32.651 13.4815 33.4732 13.4479 34.2114H13.3807C13.2297 33.7583 12.8606 32.7348 11.9039 32.1139C10.6454 31.2914 9.67189 32.0803 9.33645 32.4159C9.28584 32.483 9.23565 32.5332 9.18547 32.5838C8.31257 33.893 8.06078 35.873 8.73229 37.3494C10.0916 40.3202 12.8437 38.6253 13.4815 37.8532Z" fill="#2A5D58"/>
<path d="M28.1007 35.4701C28.1007 33.4393 27.0938 31.7782 25.8522 31.7782C24.5935 31.7782 23.5866 33.4393 23.5866 35.4701C23.5866 37.5173 24.5935 39.162 25.8522 39.162C27.0938 39.162 28.1007 37.5173 28.1007 35.4701ZM29.6278 35.4532C29.6278 37.635 27.9165 39.3971 25.8186 39.3971C23.7043 39.3971 21.9924 37.635 21.9924 35.4532C21.9924 33.2718 23.7043 31.5099 25.8186 31.5099C27.9165 31.5099 29.6278 33.2718 29.6278 35.4532Z" fill="#2A5D58"/>
<path d="M39.4987 39.1284C38.9617 38.9942 38.4918 39.2123 38.2906 39.3633C38.2906 38.6083 38.4416 37.3494 38.4247 36.5945H38.5589C38.5757 36.7455 38.4416 38.2223 39.4818 38.7593C41.9488 40.0682 44.2647 37.115 40.606 35.7552C38.844 35.1011 37.9548 34.5973 38.0721 33.2213C38.2065 31.2749 40.5222 31.392 41.7472 31.644C42.3681 31.7781 42.9727 31.6773 43.4589 31.5098C43.308 32.2982 43.2578 32.785 43.4589 33.5232C43.392 33.5232 43.3418 33.5402 43.2912 33.5402C42.7542 32.5502 42.3681 32.1472 41.5461 31.8789C40.5559 31.5263 39.4481 32.097 39.4987 32.8352C39.5489 33.6912 40.1361 34.1443 41.16 34.48C42.2508 34.8324 43.241 35.2184 43.6771 35.9903C44.7346 37.8864 43.1237 40.1184 39.4987 39.1284Z" fill="#2A5D58"/>
<path d="M54.9908 31.7612V36.5943C54.9908 36.5943 54.9739 38.1383 55.3599 38.7931C55.6788 39.3301 56.3838 39.1283 56.3838 39.1283C56.3838 39.1283 55.3768 39.4976 54.8731 39.3132C53.8329 38.9441 53.4299 38.1889 53.4299 36.7453V31.7612H51.9867V31.5262H53.1781C54.1179 31.4929 54.7055 30.4358 54.9237 29.093H54.9908V31.5262H56.7529V31.7612H54.9908Z" fill="#2A5D58"/>
<path d="M71.6741 39.3802C71.1872 39.3802 70.7675 38.9774 70.7675 38.4741V35.856C70.5494 36.6952 69.9454 38.9774 68.2335 39.3131C67.4784 39.4643 65.8842 39.6153 65.7669 37.2153C65.7163 36.1749 65.7163 34.7989 65.7332 33.6579C65.5653 31.9962 65.0113 31.6608 64.4074 31.6608V31.5263H68.6869V31.6608C68.0491 31.6608 67.4614 32.0468 67.3443 33.9429L67.3611 36.4771C67.3611 36.4771 67.2603 39.0443 68.67 38.793C69.1903 38.7091 70.1635 37.6683 70.7675 35.1513V34.329C70.7004 32.1302 70.0795 31.6608 69.4251 31.6608L69.4084 31.5263H71.4223C71.9254 31.5263 72.3284 31.9291 72.3284 32.4328V36.561C72.4123 38.7593 73.0332 39.2462 73.6875 39.2462V39.3802H71.6741Z" fill="#2A5D58"/>
<path d="M91.0598 39.3802V39.2462C91.7146 39.2462 92.3355 38.7593 92.4193 36.561V34.4632C92.4193 31.409 89.7344 31.644 89.1973 35.0339V36.5942C89.2812 38.7593 89.8854 39.2462 90.5397 39.2462L90.5564 39.3802H86.2773V39.2462C86.9317 39.2462 87.5526 38.7593 87.6364 36.561V34.4632C87.6364 31.3418 84.8172 31.644 84.3643 35.2688V36.5942C84.4481 38.7593 85.0688 39.2462 85.7234 39.2462V39.3802H81.4442V39.2462C82.1153 39.2462 82.7364 38.7593 82.8033 36.561V34.3459C82.7364 32.1302 82.1153 31.6607 81.4442 31.6607V31.5263H83.4577C83.9613 31.5263 84.3643 31.9291 84.3643 32.4328V34.1274C85.3712 31.2243 87.0657 31.2747 88.0394 31.5599C89.0627 31.8619 89.1804 32.9862 89.1804 34.027C90.2043 31.2243 91.8656 31.2912 92.8219 31.5599C93.896 31.8789 93.9798 33.087 93.9798 34.178V36.5942C94.0637 38.7593 94.6848 39.2462 95.3226 39.2462L95.3396 39.3802H91.0598Z" fill="#2A5D58"/>
<path d="M106.654 35.6043C107.544 35.6212 108.869 34.8993 108.349 32.5669C108.215 31.9461 107.779 31.7781 107.326 31.7951C107.242 31.8118 107.158 31.8118 107.074 31.8283C107.04 31.8453 107.007 31.8453 106.973 31.8453C106.889 31.862 106.822 31.8959 106.738 31.9122C106.654 31.9461 106.587 31.9628 106.52 31.9962C105.295 32.4831 104.876 33.792 104.892 35.0503C105.144 35.336 105.631 35.5873 106.654 35.6043ZM106.218 35.8561C105.547 35.7722 105.144 35.5873 104.909 35.3692C104.926 35.722 104.976 36.0409 105.06 36.3429C105.463 37.9371 107.695 39.9003 109.944 38.0379L109.977 38.1552C109.558 38.6583 108.819 39.1954 107.947 39.3466C105.446 39.8 103.046 37.9703 103.365 35.1511C103.583 33.1209 104.775 32.1642 105.933 31.7781C106.067 31.7279 106.285 31.6608 106.57 31.6102H106.621C106.688 31.5937 106.772 31.5937 106.839 31.5769C107.342 31.5263 107.779 31.5769 108.064 31.6608C108.081 31.6608 108.098 31.6773 108.114 31.6773C109.742 32.1303 110.212 34.4631 109.994 34.8491C109.541 35.6714 106.839 35.9232 106.218 35.8561Z" fill="#2A5D58"/>
<path d="M29.9945 4.26095L26.7526 11.4861C27.2312 11.6098 27.6907 11.7835 28.1303 12.0071C28.5704 12.2313 28.9909 12.4512 29.3926 12.6672C29.7937 12.8834 30.1802 13.0725 30.5506 13.2349C30.921 13.3967 31.2759 13.4776 31.616 13.4776C31.9245 13.4776 32.2256 13.42 32.5189 13.3041C32.812 13.1885 33.0361 13.0072 33.1906 12.7597L29.9945 4.26095ZM33.2135 12.8294C33.0898 13.0608 32.851 13.3041 32.4956 13.5589C32.1403 13.8134 31.693 13.9411 31.1524 13.9411C30.7202 13.9411 30.3147 13.8795 29.9369 13.7558C29.5582 13.6326 29.18 13.4892 28.8018 13.3274C28.4236 13.1652 28.0338 12.9994 27.6327 12.8294C27.2312 12.6597 26.7911 12.5282 26.3125 12.4355L25.1082 15.1219C24.6451 16.1873 24.3673 17.0172 24.2747 17.6114C24.1822 18.2061 24.1938 18.6421 24.3095 18.9199C24.4253 19.1978 24.6066 19.3678 24.8537 19.4292C25.1004 19.4913 25.3319 19.522 25.5483 19.522L25.5254 19.8695H20.2453L20.2686 19.522C20.4846 19.522 20.7277 19.4913 20.9977 19.4292C21.2677 19.3678 21.5766 19.1944 21.9241 18.9083C22.2716 18.6226 22.6499 18.187 23.0588 17.5998C23.4677 17.0134 23.9043 16.1873 24.3673 15.1219L25.6179 12.3429H25.2012C24.9075 12.3429 24.5989 12.3741 24.2747 12.4355C23.9505 12.4975 23.6415 12.5979 23.3483 12.7368C23.055 12.8757 22.7888 13.0574 22.5495 13.2811C22.3098 13.5049 22.1211 13.7787 21.9822 14.1029L21.9589 14.08C22.0821 13.6788 22.2634 13.3122 22.5031 12.9799C22.7424 12.6481 23.0243 12.3586 23.3483 12.1115C23.6725 11.8648 24.0276 11.6753 24.4136 11.5442C24.7993 11.4131 25.1929 11.3472 25.5947 11.3472H25.8265C25.9034 11.3472 25.9805 11.3551 26.058 11.3707L31.0832 0.162255L36.7337 15.2145C36.996 15.9095 37.2313 16.5232 37.4399 17.0558C37.6485 17.5886 37.8683 18.0398 38.1 18.4102C38.3314 18.781 38.5862 19.0588 38.864 19.2441C39.1419 19.4292 39.4815 19.522 39.8832 19.522V19.8695H33.3988V19.522C33.8621 19.522 34.2133 19.4332 34.4525 19.2558C34.6916 19.0783 34.8305 18.8079 34.8695 18.4454C34.9076 18.0826 34.8541 17.6269 34.7073 17.0786C34.5605 16.5308 34.3486 15.8862 34.0703 15.1452L33.2135 12.8294Z" fill="#2A5D58"/>
<path d="M63.5044 23.436C61.9604 23.5592 60.679 23.5169 59.66 23.3083C58.641 23.1001 57.7959 22.7757 57.1241 22.3357C56.4526 21.8958 55.9234 21.3707 55.5378 20.761C55.152 20.1511 54.8161 19.4953 54.5304 18.7924C54.2446 18.0902 53.9748 17.3721 53.72 16.6388C53.4651 15.9057 53.1445 15.1994 52.759 14.5201C52.373 13.8407 51.8749 13.2116 51.2653 12.6326C50.6549 12.0537 49.8562 11.5789 48.8683 11.2085C48.5443 11.0851 48.2317 10.9576 47.9306 10.8263C47.6295 10.6952 47.4097 10.5681 47.2707 10.4443V9.79562C48.32 10.4443 49.3274 10.7801 50.2928 10.803C51.2574 10.8263 52.1106 10.6412 52.8516 10.2473C53.5928 9.85364 54.1829 9.29416 54.6232 8.56844C55.0632 7.84273 55.2831 7.03993 55.2831 6.15984C55.2831 5.28017 55.1325 4.52374 54.8316 3.89057C54.5304 3.2576 54.1368 2.73264 53.6504 2.31589C53.1644 1.89871 52.6201 1.57852 52.0177 1.3549C51.4158 1.13106 50.8055 0.980501 50.1884 0.903207C49.5707 0.826125 48.9843 0.818289 48.4282 0.880125C47.8726 0.94196 47.4014 1.05017 47.0158 1.20434V17.438C47.0158 17.8395 47.1005 18.1753 47.2707 18.4453C47.4404 18.7153 47.6485 18.9318 47.8959 19.0936C48.1426 19.2558 48.4054 19.368 48.683 19.4294C48.9608 19.4913 49.208 19.522 49.4244 19.522V19.8695H42.1992V19.522C42.415 19.522 42.6583 19.4913 42.9283 19.4294C43.1983 19.368 43.4609 19.2558 43.7159 19.0936C43.9706 18.9318 44.1828 18.7153 44.3528 18.4453C44.5225 18.1753 44.6072 17.8395 44.6072 17.438V3.01047C44.6072 2.60939 44.5225 2.27354 44.3528 2.00311C44.1828 1.73311 43.9706 1.51669 43.7159 1.3549C43.4609 1.19269 43.1983 1.08088 42.9283 1.01904C42.6583 0.95763 42.415 0.926502 42.1992 0.926502V0.578996C42.801 0.578996 43.3645 0.559937 43.8893 0.520972C44.4143 0.482431 44.9314 0.436267 45.4411 0.382055C45.9504 0.328055 46.4754 0.281678 47.0158 0.243137C47.5558 0.204595 48.1582 0.185114 48.8219 0.185114C49.8098 0.185114 50.8328 0.286125 51.8904 0.486454C52.9479 0.687207 53.9129 1.01904 54.7854 1.48217C55.6572 1.94509 56.3751 2.56302 56.9391 3.33469C57.5026 4.10699 57.7842 5.06417 57.7842 6.20621C57.7842 6.88598 57.6487 7.50306 57.3791 8.05915C57.1087 8.61482 56.7455 9.10103 56.2904 9.51779C55.8347 9.93454 55.3064 10.2903 54.7041 10.5832C54.1021 10.8767 53.4613 11.1081 52.7823 11.2778C53.3994 11.4789 53.9129 11.8029 54.3219 12.2504C54.7308 12.6983 55.0749 13.2194 55.3527 13.8134C55.6306 14.4081 55.8771 15.0567 56.0935 15.7589C56.3099 16.4618 56.5414 17.1642 56.7885 17.8664C57.0352 18.5692 57.3211 19.2441 57.6453 19.8928C57.9693 20.541 58.386 21.1161 58.8958 21.6178C59.4053 22.1193 60.0304 22.5212 60.7718 22.8219C61.5125 23.1232 62.4233 23.2738 63.5044 23.2738V23.436Z" fill="#2A5D58"/>
<path d="M65.7039 1.89879C64.561 2.53239 63.6809 3.32333 63.0639 4.27267C62.4464 5.22222 62.0527 6.24907 61.8831 7.35236C61.713 8.45671 61.7475 9.58351 61.9868 10.7338C62.2261 11.8839 62.6316 12.9766 63.2028 14.0104C63.7584 15.0451 64.4568 15.9754 65.2984 16.8011C66.1397 17.6272 67.0662 18.268 68.0774 18.7233C69.0888 19.1788 70.162 19.4026 71.2964 19.3948C72.431 19.3869 73.5695 19.0746 74.7124 18.4571C75.8544 17.8239 76.7307 17.0291 77.3408 16.0715C77.9505 15.1146 78.3365 14.0877 78.4987 12.9916C78.6607 11.8956 78.6177 10.7683 78.3712 9.6104C78.1241 8.45248 77.7228 7.35681 77.1669 6.32212C76.6113 5.28787 75.9163 4.35759 75.0828 3.53149C74.249 2.70582 73.3304 2.06503 72.3269 1.60931C71.3233 1.15402 70.2545 0.930391 69.1195 0.937803C67.9848 0.94585 66.8464 1.26625 65.7039 1.89879ZM70.1732 20.1243C68.4285 20.1243 66.9038 19.8388 65.5997 19.2675C64.2951 18.6964 63.2062 17.9438 62.3343 17.0097C61.4619 16.0758 60.8094 15.0104 60.3774 13.8135C59.9452 12.6175 59.7292 11.3937 59.7292 10.1432C59.7292 8.90819 59.9452 7.69266 60.3774 6.49556C60.8094 5.29951 61.4619 4.23413 62.3343 3.30003C63.2062 2.36615 64.2951 1.61376 65.5997 1.04199C66.9038 0.471287 68.4285 0.185192 70.1732 0.185192C71.9179 0.185192 73.4424 0.471287 74.7471 1.04199C76.0514 1.61376 77.14 2.36615 78.0123 3.30003C78.8844 4.23413 79.5368 5.29951 79.9692 6.49556C80.401 7.69266 80.6174 8.90819 80.6174 10.1432C80.6174 11.3937 80.401 12.6175 79.9692 13.8135C79.5368 15.0104 78.8844 16.0758 78.0123 17.0097C77.14 17.9438 76.0514 18.6964 74.7471 19.2675C73.4424 19.8388 71.9179 20.1243 70.1732 20.1243Z" fill="#2A5D58"/>
<path d="M86.0135 16.28C86.0135 16.9746 86.098 17.5307 86.268 17.9472C86.4381 18.364 86.65 18.6846 86.9048 18.9084C87.1597 19.1325 87.4259 19.2788 87.7038 19.3485C87.982 19.4177 88.2209 19.4529 88.4216 19.4529V19.7998H82.9333V19.4529C83.1493 19.4529 83.3925 19.4177 83.6629 19.3485C83.9329 19.2788 84.1957 19.1325 84.45 18.9084C84.705 18.6846 84.9169 18.364 85.087 17.9472C85.2566 17.5307 85.342 16.9746 85.342 16.28V0H86.0135L98.3794 16.1875V3.93691C98.3794 3.2419 98.2947 2.68644 98.1251 2.26969C97.9551 1.85251 97.7465 1.53233 97.4998 1.30849C97.2526 1.08487 96.9901 0.937692 96.7122 0.868446C96.4344 0.798775 96.1873 0.764256 95.9715 0.764256V0.41675H101.483V0.764256C101.267 0.764256 101.02 0.798775 100.742 0.868446C100.464 0.937692 100.197 1.08487 99.9429 1.30849C99.6882 1.53233 99.4755 1.85251 99.3059 2.26969C99.1359 2.68644 99.0512 3.2419 99.0512 3.93691V20.2169H98.3794L86.0135 4.07583V16.28Z" fill="#2A5D58"/>
<path d="M113.363 9.40232C113.826 9.40232 114.238 9.37902 114.601 9.33265C114.964 9.28627 115.269 9.19034 115.516 9.04316C115.763 8.89641 115.948 8.68825 116.072 8.41782C116.195 8.14782 116.257 7.78909 116.257 7.34121H116.582V12.158H116.257C116.257 11.7105 116.195 11.3514 116.072 11.0814C115.948 10.8112 115.767 10.6028 115.528 10.4561C115.288 10.3093 114.999 10.2127 114.659 10.1666C114.32 10.1202 113.933 10.0969 113.502 10.0969H109.727V20.3325C110.669 20.3325 111.564 20.4446 112.413 20.6684C113.262 20.892 114.096 21.1665 114.914 21.4905C115.732 21.8147 116.555 22.1738 117.38 22.5675C118.206 22.961 119.071 23.3201 119.974 23.6441C120.877 23.9683 121.838 24.2421 122.858 24.4664C123.876 24.69 124.988 24.8022 126.192 24.8022C126.995 24.8022 127.84 24.7169 128.728 24.5473C129.615 24.3772 130.465 24.096 131.275 23.7021C132.086 23.3085 132.827 22.8026 133.498 22.1855C134.17 21.5675 134.691 20.8033 135.062 19.8929L135.108 19.9622C134.783 21.0739 134.286 22.0578 133.614 22.9146C132.943 23.7718 132.155 24.4971 131.252 25.0917C130.349 25.6857 129.365 26.1336 128.299 26.435C127.234 26.7361 126.153 26.8862 125.058 26.8862C123.93 26.8862 122.842 26.7395 121.792 26.4466C120.742 26.1527 119.727 25.7901 118.747 25.3577C117.766 24.9255 116.825 24.4547 115.921 23.9455C115.018 23.4362 114.142 22.9648 113.293 22.5326C112.444 22.1003 111.618 21.7372 110.815 21.4443C110.013 21.1508 109.233 21.004 108.476 21.004C107.998 21.004 107.523 21.0856 107.052 21.2474C106.581 21.4096 106.145 21.6294 105.744 21.9072C105.342 22.1855 104.98 22.5057 104.655 22.8684C104.331 23.231 104.084 23.6058 103.914 23.9916H103.798C103.845 23.7754 103.956 23.5204 104.134 23.2276C104.311 22.9341 104.558 22.6329 104.875 22.3244C105.191 22.0154 105.566 21.7181 105.999 21.4324C106.43 21.147 106.909 20.9115 107.434 20.7264H107.295V2.8715C107.295 2.45496 107.21 2.11127 107.04 1.84127C106.871 1.57127 106.658 1.35484 106.403 1.19263C106.149 1.03042 105.882 0.918821 105.605 0.856774C105.327 0.795363 105.08 0.764234 104.863 0.764234V0.416729H117.948V3.28825H117.6C117.446 2.53247 117.195 1.98019 116.848 1.63268C116.5 1.28517 116.003 1.11174 115.354 1.11174H109.727V9.40232H113.363Z" fill="#2A5D58"/>
<path d="M136.404 17.2065C136.404 18.0091 136.211 18.785 135.825 19.5338C135.439 20.2824 134.891 20.9422 134.181 21.5138C133.471 22.0847 132.618 22.5442 131.622 22.8917C130.626 23.2393 129.518 23.4127 128.299 23.4127C126.477 23.4127 124.976 23.1154 123.795 22.5214C122.614 21.9267 121.726 21.1815 121.132 20.2862C120.537 19.3913 120.221 18.4258 120.182 17.3918C120.143 16.3575 120.359 15.3925 120.831 14.4968C121.301 13.6014 122.008 12.8567 122.95 12.2622C123.891 11.668 125.042 11.3707 126.4 11.3707C127.465 11.3707 128.376 11.5365 129.132 11.8683C129.889 12.2008 130.499 12.6252 130.962 13.1423C131.425 13.6595 131.738 14.2268 131.9 14.8443C132.062 15.4618 132.074 16.0564 131.935 16.6275C131.796 17.1987 131.498 17.7008 131.043 18.1326C130.588 18.5652 129.981 18.8587 129.225 19.0126L129.179 18.9665C129.441 18.6272 129.646 18.2217 129.793 17.7505C129.939 17.2796 130.02 16.7859 130.036 16.2684C130.051 15.7513 129.997 15.242 129.874 14.7399C129.75 14.2384 129.546 13.7905 129.26 13.3969C128.974 13.003 128.596 12.679 128.125 12.424C127.654 12.1695 127.079 12.042 126.4 12.042C125.504 12.042 124.748 12.305 124.131 12.8295C123.513 13.3543 123.061 14.0148 122.776 14.8095C122.49 15.6049 122.382 16.4617 122.452 17.3799C122.521 18.2988 122.787 19.1556 123.25 19.9503C123.714 20.7453 124.386 21.4058 125.265 21.9305C126.145 22.4551 127.257 22.7181 128.6 22.7181C129.449 22.7181 130.206 22.5675 130.869 22.2664C131.533 21.9653 132.093 21.5754 132.548 21.0966C133.004 20.618 133.351 20.078 133.59 19.4758C133.83 18.8737 133.95 18.2641 133.95 17.6461C133.95 16.7358 133.733 15.9325 133.301 15.2379C132.869 14.5431 132.332 13.8949 131.692 13.2925C131.051 12.6906 130.356 12.1081 129.608 11.5443C128.859 10.9808 128.164 10.3828 127.523 9.74943C126.882 9.11668 126.35 8.41447 125.925 7.64195C125.501 6.8705 125.288 5.97473 125.288 4.95572C125.288 4.36935 125.412 3.78636 125.659 3.20739C125.906 2.62843 126.269 2.11511 126.747 1.66723C127.226 1.21999 127.816 0.85681 128.519 0.578975C129.221 0.30114 130.028 0.162222 130.939 0.162222C131.402 0.162222 131.85 0.204787 132.282 0.289492C132.714 0.37441 133.104 0.451704 133.452 0.520951C133.799 0.590622 134.096 0.629162 134.343 0.636998C134.59 0.644833 134.76 0.578974 134.853 0.440057H135.061L135.524 4.19146H135.13C134.945 3.69763 134.737 3.24594 134.505 2.83702C134.274 2.4281 134.007 2.07657 133.706 1.78328C133.405 1.48999 133.062 1.26234 132.676 1.09992C132.29 0.937704 131.85 0.856809 131.356 0.856809C130.893 0.856809 130.437 0.92648 129.99 1.0654C129.541 1.20432 129.144 1.41671 128.797 1.70196C128.45 1.98805 128.167 2.34721 127.952 2.779C127.735 3.21121 127.627 3.72092 127.627 4.3073C127.627 5.12556 127.843 5.87478 128.276 6.5537C128.708 7.23304 129.248 7.88167 129.897 8.49875C130.545 9.11668 131.252 9.73037 132.016 10.34C132.78 10.9501 133.486 11.5945 134.135 12.2739C134.783 12.9532 135.324 13.6944 135.756 14.4968C136.188 15.3 136.404 16.203 136.404 17.2065Z" fill="#2A5D58"/>
<path d="M155 17.2065C155 18.0091 154.807 18.785 154.421 19.5338C154.035 20.2824 153.487 20.9422 152.777 21.5138C152.067 22.0847 151.214 22.5442 150.218 22.8917C149.222 23.2393 148.114 23.4127 146.895 23.4127C145.073 23.4127 143.571 23.1154 142.39 22.5214C141.209 21.9267 140.322 21.1815 139.727 20.2862C139.133 19.3913 138.816 18.4258 138.778 17.3918C138.739 16.3575 138.955 15.3925 139.426 14.4968C139.897 13.6014 140.603 12.8567 141.545 12.2622C142.487 11.668 143.637 11.3707 144.996 11.3707C146.061 11.3707 146.972 11.5365 147.728 11.8683C148.484 12.2008 149.095 12.6252 149.558 13.1423C150.021 13.6595 150.334 14.2268 150.496 14.8443C150.658 15.4618 150.669 16.0564 150.53 16.6275C150.392 17.1987 150.094 17.7008 149.639 18.1326C149.183 18.5652 148.577 18.8587 147.821 19.0126L147.775 18.9665C148.037 18.6272 148.241 18.2217 148.388 17.7505C148.535 17.2796 148.616 16.7859 148.632 16.2684C148.647 15.7513 148.593 15.242 148.469 14.7399C148.346 14.2384 148.141 13.7905 147.856 13.3969C147.57 13.003 147.192 12.679 146.721 12.424C146.25 12.1695 145.675 12.042 144.996 12.042C144.1 12.042 143.344 12.305 142.726 12.8295C142.109 13.3543 141.657 14.0148 141.371 14.8095C141.086 15.6049 140.978 16.4617 141.047 17.3799C141.117 18.2988 141.383 19.1556 141.846 19.9503C142.309 20.7453 142.981 21.4058 143.861 21.9305C144.741 22.4551 145.853 22.7181 147.196 22.7181C148.044 22.7181 148.801 22.5675 149.465 22.2664C150.129 21.9653 150.689 21.5754 151.144 21.0966C151.599 20.618 151.947 20.078 152.186 19.4758C152.425 18.8737 152.545 18.2641 152.545 17.6461C152.545 16.7358 152.329 15.9325 151.897 15.2379C151.464 14.5431 150.928 13.8949 150.287 13.2925C149.646 12.6906 148.952 12.1081 148.203 11.5443C147.454 10.9808 146.759 10.3828 146.119 9.74943C145.478 9.11668 144.946 8.41447 144.521 7.64195C144.096 6.8705 143.884 5.97473 143.884 4.95572C143.884 4.36935 144.008 3.78636 144.255 3.20739C144.502 2.62843 144.864 2.11511 145.343 1.66723C145.821 1.21999 146.412 0.85681 147.115 0.578975C147.817 0.30114 148.623 0.162222 149.535 0.162222C149.998 0.162222 150.446 0.204787 150.878 0.289492C151.31 0.37441 151.7 0.451704 152.047 0.520951C152.395 0.590622 152.692 0.629162 152.939 0.636998C153.186 0.644833 153.356 0.578974 153.448 0.440057H153.657L154.12 4.19146H153.726C153.541 3.69763 153.333 3.24594 153.101 2.83702C152.869 2.4281 152.603 2.07657 152.302 1.78328C152.001 1.48999 151.657 1.26234 151.272 1.09992C150.885 0.937704 150.446 0.856809 149.951 0.856809C149.488 0.856809 149.033 0.92648 148.585 1.0654C148.137 1.20432 147.74 1.41671 147.393 1.70196C147.045 1.98805 146.764 2.34721 146.547 2.779C146.331 3.21121 146.223 3.72092 146.223 4.3073C146.223 5.12556 146.439 5.87478 146.872 6.5537C147.304 7.23304 147.844 7.88167 148.493 8.49875C149.141 9.11668 149.847 9.73037 150.611 10.34C151.375 10.9501 152.082 11.5945 152.73 12.2739C153.379 12.9532 153.919 13.6944 154.351 14.4968C154.784 15.3 155 16.203 155 17.2065Z" fill="#2A5D58"/>
<path d="M9.08283 11.7108V18.0792C9.08283 18.419 9.15589 18.7009 9.30286 18.9245C9.4494 19.1486 9.62707 19.3262 9.83544 19.4571C10.0438 19.5884 10.2638 19.6812 10.4955 19.735C10.727 19.7892 10.9356 19.8161 11.1209 19.8161V20.1172C10.4877 20.1172 9.91253 19.9666 9.3954 19.6657C8.87806 19.3644 8.37258 19.0327 7.87874 18.6698C7.38427 18.307 6.87879 17.9752 6.36187 17.6741C5.84432 17.3729 5.26938 17.2224 4.63663 17.2224V16.9214C4.82171 16.9214 5.0303 16.8946 5.26176 16.8401C5.49343 16.7863 5.71345 16.6936 5.92183 16.5625C6.1302 16.4314 6.30385 16.2538 6.44277 16.0299C6.5819 15.8061 6.65135 15.5242 6.65135 15.1846V11.7571M9.08283 10.9467V1.45184C9.46867 1.29768 9.92015 1.19349 10.4375 1.13928C10.9546 1.08528 11.4834 1.0929 12.024 1.16236C12.564 1.23182 13.0928 1.36312 13.6101 1.55603C14.1273 1.74916 14.5904 2.01916 14.9997 2.36667C15.4087 2.71396 15.7407 3.13474 15.9955 3.62857C16.2502 4.12283 16.3777 4.70179 16.3777 5.36546C16.3777 5.89064 16.2538 6.41179 16.0071 6.92871C15.76 7.44605 15.3934 7.90134 14.907 8.29501C14.4208 8.68868 13.8147 9.00929 13.0892 9.25621C12.3633 9.50334 11.5296 9.62659 10.5883 9.62659V10.3214H10.9356C11.0433 10.3214 11.159 10.3138 11.2829 10.2981C12.24 10.2981 13.1123 10.4601 13.8996 10.7845C14.6872 11.1087 15.3623 11.5602 15.926 12.1392C16.4895 12.7181 16.9296 13.4013 17.2461 14.1888C17.5623 14.9762 17.7207 15.841 17.7207 16.7823C17.7207 17.6317 17.5701 18.4728 17.2692 19.3066C16.9681 20.1403 16.5126 20.885 15.9029 21.5413C15.2928 22.1973 14.5328 22.7223 13.622 23.116C9.90363 24.7233 5.1167 22.9817 2.26487 20.5898C0.794373 19.3563 0.374444 17.9303 0.0339271 16.7529C-0.187578 18.5872 0.697809 20.4353 2.03955 21.7056C4.25651 23.8049 7.17441 24.4014 10.1249 24.4014C11.7924 24.4014 13.2588 24.1733 14.525 23.718C15.7907 23.2625 16.8482 22.6645 17.6976 21.9233C18.5466 21.1824 19.1834 20.3408 19.6082 19.3993C20.0325 18.4578 20.2449 17.5082 20.2449 16.5506C20.2449 15.6557 20.0829 14.8371 19.7587 14.0961C19.4345 13.3549 18.9981 12.7067 18.4502 12.1508C17.902 11.5949 17.2612 11.1282 16.528 10.7496C15.7947 10.3718 15.0112 10.0897 14.1777 9.90442C15.7524 9.50334 16.9296 8.88944 17.7093 8.06355C18.4886 7.23788 18.8786 6.36139 18.8786 5.43513C18.8786 4.50866 18.6508 3.72916 18.1955 3.09598C17.74 2.46323 17.1377 1.94991 16.3891 1.55603C15.6401 1.16236 14.7914 0.876904 13.8418 0.699233C12.8923 0.521986 11.9158 0.432834 10.9123 0.432834C10.2484 0.432834 9.64232 0.452527 9.09448 0.490645C8.54622 0.529398 8.01745 0.575774 7.50815 0.629774C6.99865 0.683985 6.4811 0.730363 5.95656 0.768692C5.43159 0.807445 4.86025 0.826503 4.24275 0.826503V1.17401C4.45875 1.17401 4.70587 1.20514 4.98392 1.26655C5.26176 1.3286 5.52816 1.4402 5.78291 1.6022C6.03745 1.76441 6.24964 1.98083 6.41968 2.25083C6.58931 2.52104 6.67444 2.86452 6.67444 3.28128L6.65135 11.7571" fill="#2A5D58"/>
<path d="M9.08292 14.9446H6.65419V10.7701H9.08292V14.9446Z" fill="#2A5D58"/>
</svg>
